<?xml version="1.0"?>
<svg xmlns="http://www.w3.org/2000/svg" xmlns:xlink="http://www.w3.org/1999/xlink" xmlns:svgjs="http://svgjs.com/svgjs" version="1.1" width="512" height="512" x="0" y="0" viewBox="0 0 511.753 511.753" style="enable-background:new 0 0 512 512" xml:space="preserve" class=""><g><g xmlns="http://www.w3.org/2000/svg"><path d="m304.989 361.649c-25.151 0-45.613 20.478-45.613 45.649 2.294 60.482 88.942 60.465 91.227-.001 0-25.17-20.462-45.648-45.614-45.648zm0 61.302c-8.609 0-15.613-7.022-15.613-15.653.785-20.732 30.444-20.727 31.227 0 0 8.631-7.004 15.653-15.614 15.653z" fill="#ffffff" data-original="#000000" style=""/><path d="m447.934 452.985c-.116-.458-112.998-229.145-113.268-229.77v-193.215h31.277c8.284 0 15-6.716 15-15s-6.716-15-15-15h-223.103c-8.284 0-15 6.716-15 15s6.716 15 15 15h31.278v193.295c-.363 1.121-110.238 229.031-110.518 230.041-5.288 13.133-3.715 27.975 4.207 39.705 7.912 11.714 21.07 18.708 35.199 18.708h305.667c29.748.429 51.054-31.387 39.261-58.764zm-107.859-150.97c-52.55-23.362-96.97-40.896-155.59-31.031l18.153-37.774c.974-2.027 1.48-4.248 1.48-6.498v-11.702h32.073c8.284 0 15-6.716 15-15s-6.716-15-15-15h-32.073v-34.344h32.073c8.284 0 15-6.716 15-15s-6.716-15-15-15h-32.073v-31.627h34.293c8.284 0 15-6.716 15-15s-6.716-15-15-15h-34.293v-29.026c25.061.01 75.493.01 100.548 0v196.7c0 2.301.529 4.571 1.547 6.634zm78.966 174.189c-2.357 3.524-6.137 5.545-10.369 5.545h-305.667c-8.424.273-14.884-9.035-11.72-16.834l76.694-159.586c73.208-21.954 127.184 11.154 192.292 37.641l60.085 121.846c1.448 3.832.977 7.961-1.315 11.388z" fill="#ffffff" data-original="#000000" style=""/><path d="m158.006 398.901c-5.865 5.865-5.871 15.369-.013 21.226 14.575 13.534 34.772-6.671 21.24-21.24-5.859-5.857-15.362-5.851-21.227.014z" fill="#ffffff" data-original="#000000" style=""/><path d="m207.915 355.376c-5.865 5.865-5.871 15.369-.013 21.226 14.575 13.534 34.772-6.671 21.239-21.24-5.857-5.857-15.361-5.851-21.226.014z" fill="#ffffff" data-original="#000000" style=""/></g></g></svg>
