<?xml version="1.0"?>
<svg xmlns="http://www.w3.org/2000/svg" xmlns:xlink="http://www.w3.org/1999/xlink" xmlns:svgjs="http://svgjs.com/svgjs" version="1.1" width="512" height="512" x="0" y="0" viewBox="0 0 622.359 622.359" style="enable-background:new 0 0 512 512" xml:space="preserve" class=""><g>
<g xmlns="http://www.w3.org/2000/svg">
	<path d="M617.175,376.854c0-128.84-11.466-166.517-13.761-172.762l-4.082-11.079l-10.836-4.692   c-2.641-1.147-59.267-25.886-227.032-29.948v-34.721h-16.929l37.32-61.765L346.484,40.52L310.535,100L250.111,0L214.74,21.377   l61.805,102.274h-10.602v34.721c-167.766,4.062-229.459,28.811-232.1,29.948l-10.836,4.692l-4.072,11.079   c-2.295,6.246-13.76,43.922-13.76,172.762v0.742v0.74c0,128.842,11.465,166.518,13.76,172.764l4.072,11.078l10.836,4.691   c0.589,0.254,3.971,1.676,10.724,3.779v51.711h46.735l14.958-38.225c43.688,6.904,109.718,13.252,204.914,13.252   c95.196,0,161.226-6.348,204.914-13.252l14.959,38.225h46.734v-51.711c6.753-2.104,10.146-3.525,10.724-3.779l10.836-4.691   l4.083-11.078c2.295-6.246,13.76-43.922,13.76-172.764v-0.74L617.175,376.854z M416.069,504.496H75.125V237.939h340.945V504.496   L416.069,504.496z M514.606,507.025c-15.437,0-27.938-12.512-27.938-27.938c0-15.438,12.512-27.938,27.938-27.938   c15.436,0,27.937,12.512,27.937,27.938S530.032,507.025,514.606,507.025z M514.606,428.037c-15.437,0-27.938-12.512-27.938-27.938   c0-15.438,12.512-27.938,27.938-27.938c15.436,0,27.937,12.512,27.937,27.938S530.032,428.037,514.606,428.037z M571.547,342.234   H458.579v-23.195h112.968V342.234z M571.547,300.912H458.579v-23.195h112.968V300.912z M571.547,259.58H458.579v-23.195h112.968   V259.58z" fill="#ffffff" data-original="#000000" style="" class=""/>
</g>
<g xmlns="http://www.w3.org/2000/svg">
</g>
<g xmlns="http://www.w3.org/2000/svg">
</g>
<g xmlns="http://www.w3.org/2000/svg">
</g>
<g xmlns="http://www.w3.org/2000/svg">
</g>
<g xmlns="http://www.w3.org/2000/svg">
</g>
<g xmlns="http://www.w3.org/2000/svg">
</g>
<g xmlns="http://www.w3.org/2000/svg">
</g>
<g xmlns="http://www.w3.org/2000/svg">
</g>
<g xmlns="http://www.w3.org/2000/svg">
</g>
<g xmlns="http://www.w3.org/2000/svg">
</g>
<g xmlns="http://www.w3.org/2000/svg">
</g>
<g xmlns="http://www.w3.org/2000/svg">
</g>
<g xmlns="http://www.w3.org/2000/svg">
</g>
<g xmlns="http://www.w3.org/2000/svg">
</g>
<g xmlns="http://www.w3.org/2000/svg">
</g>
</g></svg>
