<svg width="14" height="17" xmlns="http://www.w3.org/2000/svg" xmlns:xlink="http://www.w3.org/1999/xlink" xmlns:svgjs="http://svgjs.com/svgjs" viewBox="0.775 0 12.45 17" fill="#fff"><svg xmlns="http://www.w3.org/2000/svg" width="14" height="17" viewBox="1.642 1.066 11.682 15.951"><path paint-order="stroke fill markers" fill-rule="evenodd" d="M13.22 15.013l-3.065-8.267V4.314c.578-.2.994-.745.994-1.385v-.397c0-.809-.663-1.466-1.48-1.466H5.296c-.815 0-1.479.657-1.479 1.466v.397c0 .64.415 1.184.995 1.385v2.432l-3.06 8.251c-.185.452-.132.965.143 1.372a1.48 1.48 0 0 0 1.228.648h8.722c.493 0 .952-.242 1.227-.648.276-.407.329-.92.149-1.356zM5.11 13.14a.5.5 0 0 1 .502-.5c.28 0 .506.223.506.5s-.226.5-.506.5a.501.501 0 0 1-.503-.5zm3.249.436c.482 0 .871.388.871.862 0 .477-.39.865-.871.865a.867.867 0 0 1-.871-.865c0-.474.389-.862.871-.862zm-.742-1.893c0-.342.282-.622.63-.622.345 0 .626.28.626.622a.625.625 0 0 1-.627.623.626.626 0 0 1-.629-.623zM5.79 6.92V3.91l-.004-.485h-.49a.5.5 0 0 1-.5-.496v-.397a.5.5 0 0 1 .5-.496H9.67c.276 0 .5.222.5.496v.397a.5.5 0 0 1-.505.496h-.489v3.494l.859 2.314-.034.03c-.639.658-5.308.734-5.308.734h-.045L5.789 6.92zm1.353 1.868a.68.68 0 0 0 .68-.676.68.68 0 0 0-.68-.676.68.68 0 0 0-.682.676.68.68 0 0 0 .682.676z"/></svg></svg>