<svg width="18" height="18" xmlns="http://www.w3.org/2000/svg" xmlns:xlink="http://www.w3.org/1999/xlink" xmlns:svgjs="http://svgjs.com/svgjs" viewBox="0 0.213 18 17.574" fill="#fff"><svg xmlns="http://www.w3.org/2000/svg" width="18" height="18" viewBox="1.961 1.822 16.009 15.63"><path paint-order="stroke fill markers" fill-rule="evenodd" d="M15.27 15.429a56.86 56.86 0 0 0-2.035-.102 6.842 6.842 0 0 0 1.672-2.245 1.584 1.584 0 0 0 1.965.239c.367-.226.624-.581.726-1.001.1-.421.034-.856-.19-1.225a1.597 1.597 0 0 0-1.759-.722c.029-.288.048-.58.048-.879a.561.561 0 0 0-.558-.564H4.793a.561.561 0 0 0-.56.564c0 2.413.976 4.546 2.46 5.833a57.27 57.27 0 0 0-2.031.102c-2.092.147-2.7.288-2.7.934 0 .645.608.786 2.7.934 1.419.1 3.302.155 5.304.155 2 0 3.885-.055 5.303-.155 2.093-.148 2.7-.289 2.7-.934 0-.646-.607-.787-2.7-.934zm.267-4.292c.004-.003.01-.003.013-.005a.932.932 0 0 1 1.286.315c.13.215.169.468.11.713a.934.934 0 0 1-1.708.268c-.01-.018-.027-.029-.04-.043.144-.399.256-.816.34-1.248zm-10.165-1.08h9.187c-.22 3.04-2.196 5.425-4.593 5.425-2.398 0-4.374-2.386-4.594-5.424zm3.557-2.279l.038.002a.45.45 0 0 0 .422-.606c-.005-.013-.433-1.258.123-2.296.591-.988.784-1.783.572-2.364a1.076 1.076 0 0 0-.665-.674.454.454 0 0 0-.558.304c-.07.24.066.492.284.556.002 0 .063.031.098.126.05.14.105.571-.484 1.561l-.022.037a8.238 8.238 0 0 1-.146.233c-.681 1.054-.886 1.883-.607 2.465.225.47.698.633.945.656zm2.386.084h.031a.423.423 0 0 0 .397-.568c-.003-.007-.243-.714.063-1.284.392-.655.511-1.172.363-1.579a.809.809 0 0 0-.505-.505.424.424 0 1 0-.286.799c.008.022.07.236-.281.825l-.026.043-.078.125c-.455.703-.58 1.246-.382 1.658.154.323.47.463.704.486z"/></svg></svg>