<svg width="18" height="17" xmlns="http://www.w3.org/2000/svg" xmlns:xlink="http://www.w3.org/1999/xlink" xmlns:svgjs="http://svgjs.com/svgjs" viewBox="0 0.058 18 16.883" fill="#fff"><svg xmlns="http://www.w3.org/2000/svg" width="18" height="17" viewBox="1.517 1.681 15.997 15.004"><path paint-order="stroke fill markers" fill-rule="evenodd" d="M17.452 1.715a.163.163 0 0 0-.173-.016L1.605 9.635a.16.16 0 0 0 .024.295l4.96 1.562a.16.16 0 0 0 .157-.034l7.545-6.385-5.795 6.791a.16.16 0 0 0 .076.256l5.822 1.756a.167.167 0 0 0 .127-.014.163.163 0 0 0 .077-.101l2.91-11.882a.16.16 0 0 0-.056-.164zm-7.176 12.14l-1.609-.49a.16.16 0 0 0-.143.024.159.159 0 0 0-.066.13v3.006a.16.16 0 0 0 .162.16.163.163 0 0 0 .136-.074l1.609-2.517a.156.156 0 0 0 .015-.141.162.162 0 0 0-.104-.098z"/></svg></svg>