<svg width="18" height="18" xmlns="http://www.w3.org/2000/svg" xmlns:xlink="http://www.w3.org/1999/xlink" xmlns:svgjs="http://svgjs.com/svgjs" viewBox="0 0.02 18 17.96" fill="#fff"><svg xmlns="http://www.w3.org/2000/svg" width="18" height="18" viewBox="1.942 1.155 16.009 15.974"><path paint-order="stroke fill markers" fill-rule="evenodd" d="M16.617 5.149h-5.68l2.24-2.683c.036.007.067.02.104.02a.666.666 0 1 0 0-1.331c-.367 0-.667.3-.667.666 0 .08.02.154.046.225L10.068 5.15h-.244L7.233 2.046a.67.67 0 0 0 .045-.225.667.667 0 0 0-1.335 0c0 .368.3.665.668.665.037 0 .069-.013.103-.02L8.956 5.15h-5.68c-.737 0-1.334.596-1.334 1.33v9.319c0 .735.597 1.33 1.333 1.33h13.342c.736 0 1.333-.595 1.333-1.33V6.479c0-.734-.597-1.33-1.333-1.33zm-2.669 9.317c0 .735-.597 1.332-1.334 1.332H4.61a1.333 1.333 0 0 1-1.335-1.332V7.811c0-.736.598-1.332 1.335-1.332h8.004c.737 0 1.334.596 1.334 1.332v6.655zm1.966-5.948a.952.952 0 1 1 0 0z"/></svg></svg>