<svg height="511pt" viewBox="0 0 511 511.89155" width="511pt" xmlns="http://www.w3.org/2000/svg"><path d="m43.128906 511.890625c-.660156 0-1.3125-.074219-1.957031-.222656-3.855469-.90625-6.578125-4.347657-6.578125-8.308594 0-16.351563-9.078125-27.367187-28.59375-34.671875-3.871094-1.445312-6.152344-5.453125-5.417969-9.519531.738281-4.0625 4.28125-7.015625 8.414063-7.011719 10.628906.273438 21.128906-2.382812 30.351562-7.679688 2.910156-1.441406 5.820313-2.882812 9.011719-4.1875 2.542969-1.023437 5.417969-.773437 7.746094.671876 2.328125 1.460937 3.8125 3.949218 3.988281 6.691406.101562 1.484375.101562 3.039062.101562 4.503906.828126 18.800781-2.371093 37.558594-9.386718 55.015625-1.453125 2.90625-4.429688 4.738281-7.679688 4.71875zm0 0" fill="#639085"/><path d="m442.078125 409.492188c-1.105469.003906-2.195313-.210938-3.21875-.632813-4.347656-1.777344-6.441406-6.734375-4.683594-11.09375 6.488281-16.160156 11.625-32.832031 15.359375-49.84375.589844-3.050781 2.789063-5.542969 5.746094-6.5 2.960938-.960937 6.203125-.234375 8.472656 1.890625 2.265625 2.128906 3.199219 5.320312 2.429688 8.332031-3.9375 17.9375-9.359375 35.515625-16.210938 52.554688-1.316406 3.203125-4.433594 5.292969-7.894531 5.292969zm0 0" fill="#f4cd1e"/><path d="m119.925781 59.105469c-3.894531-.003907-7.296875-2.644531-8.261719-6.421875-.964843-3.773438.75-7.722656 4.167969-9.597656 11.34375-6.179688 22.992188-11.789063 34.902344-16.800782 2.808594-1.1875 6.039063-.78125 8.472656 1.058594 2.433594 1.839844 3.695313 4.839844 3.320313 7.867188-.378906 3.027343-2.34375 5.625-5.15625 6.808593-11.382813 4.78125-22.519532 10.136719-33.363282 16.042969-1.25.683594-2.65625 1.042969-4.082031 1.042969zm0 0" fill="#f6ab27"/><path d="m58.488281 102.292969c-3.535156-.003907-6.703125-2.183594-7.96875-5.484375-1.261719-3.300782-.363281-7.039063 2.269531-9.398438 8.917969-8.015625 18.285157-15.515625 28.054688-22.46875 3.839844-2.65625 9.097656-1.734375 11.804688 2.070313 2.707031 3.800781 1.859374 9.070312-1.90625 11.832031-9.257813 6.578125-18.136719 13.675781-26.589844 21.261719-1.554688 1.398437-3.570313 2.175781-5.664063 2.1875zm0 0" fill="#f6ab27"/><path d="m503.074219 8.765625c-71.636719 33.09375-139.929688 72.988281-203.945313 119.125-3.65625-32.15625 2.21875-64.679687 16.894532-93.523437 5.71875-.257813 11.433593-.34375 17.238281-.34375 103.59375 0 162.472656-22.355469 169.8125-25.257813zm0 0" fill="#74e1c5"/><path d="m299.128906 127.890625c-42.410156 30.582031-81.890625 65.035156-117.933594 102.914063l-1.535156-.511719c-9.042968-23.382813-32.425781-99.328125 3.753906-170.414063 42.582032-15.449218 87.335938-24.058594 132.609376-25.511718-14.675782 28.84375-20.550782 61.367187-16.894532 93.523437zm0 0" fill="#25c3aa"/><path d="m435.660156 187.625c0 4.523438 0 9.214844.085938 14.164062h-.085938c-77.953125 41.96875-169.0625 52.355469-254.464844 29.015626 36.042969-37.878907 75.523438-72.332032 117.933594-102.914063 48.234375 10.84375 98.476563 8.78125 145.664063-5.972656-5.980469 21.394531-9.050781 43.492187-9.132813 65.707031zm0 0" fill="#00ad97"/><path d="m179.660156 230.292969 1.535156.511719c-30.617187 31.835937-57.710937 66.882812-80.808593 104.53125-3.925781-1.621094-6.058594-2.644532-6.058594-2.644532-17.835937-15.957031-58.453125-74.921875-35.242187-190.804687 33.890624-37.351563 76.652343-65.554688 124.328124-82.007813-36.179687 71.085938-12.796874 147.03125-3.753906 170.414063zm0 0" fill="#74e1c5"/><path d="m100.386719 335.335938c-22.160157 34.578124-38.371094 72.621093-47.957031 112.554687-.289063.101563-.574219.214844-.855469.34375-2.472657-40.363281-42.578125-67.757813-42.578125-175.277344.011718-48.363281 17.84375-95.023437 50.089844-131.070312-23.210938 115.882812 17.40625 174.847656 35.242187 190.804687 0 0 2.132813 1.023438 6.058594 2.644532zm0 0" fill="#25c3aa"/><path d="m428.835938 320.402344c-14.933594 91.820312-61.441407 182.957031-206.507813 182.957031-76.800781 0-102.402344-59.734375-145.066406-59.734375-8.476563-.191406-16.910157 1.253906-24.832031 4.265625 9.585937-39.933594 25.796874-77.976563 47.957031-112.554687 32.171875 13.3125 187.050781 69.546874 327.765625-15.019532zm0 0" fill="#00ad97"/><path d="m503.925781 8.425781c-27.382812 33.308594-47.523437 71.964844-59.132812 113.492188-47.1875 14.753906-97.429688 16.816406-145.664063 5.972656 64.015625-46.136719 132.308594-86.03125 203.945313-119.125.171875-.085937.425781-.171875.597656-.253906.171875-.085938.171875-.085938.253906-.085938zm0 0" fill="#53bdad"/><path d="m435.746094 201.789062c.859375 39.660157-1.453125 79.324219-6.910156 118.613282l-.683594-.085938c-140.714844 84.566406-295.59375 28.332032-327.765625 15.019532 23.097656-37.648438 50.191406-72.695313 80.808593-104.53125 85.402344 23.339843 176.511719 12.953124 254.464844-29.015626zm0 0" fill="#53bdad"/><path d="m51.660156 460.691406c-.394531 0-.785156-.027344-1.175781-.085937-4.664063-.648438-7.921875-4.953125-7.28125-9.617188 1.425781-10.289062 39.570313-254.300781 457.097656-450.242187 4.246094-1.898438 9.230469-.046875 11.207031 4.160156 1.976563 4.210938.21875 9.230469-3.953124 11.285156-409.207032 192.03125-447.105469 434.703125-447.445313 437.136719-.585937 4.21875-4.1875 7.359375-8.449219 7.363281zm0 0" fill="#639085"/></svg>